<mxfile host="app.diagrams.net" agent="Mozilla/5.0 (Windows NT 10.0; Win64; x64) AppleWebKit/537.36 (KHTML, like Gecko) Chrome/134.0.0.0 Safari/537.36" version="26.1.1" pages="2">
  <diagram name="Page-1" id="q_onxawpI121v1ig1BDE">
    <mxGraphModel grid="1" page="1" gridSize="10" guides="1" tooltips="1" connect="1" arrows="1" fold="1" pageScale="1" pageWidth="850" pageHeight="1100" background="light-dark(#ffffff, #121212)" math="0" shadow="1" adaptiveColors="simple">
      <root>
        <mxCell id="0" />
        <mxCell id="1" parent="0" />
        <mxCell id="er4ETXjvwD2l1oIMoO1T-1" style="edgeStyle=orthogonalEdgeStyle;rounded=0;orthogonalLoop=1;jettySize=auto;html=1;exitX=1;exitY=0.5;exitDx=0;exitDy=0;entryX=0;entryY=0.5;entryDx=0;entryDy=0;" edge="1" parent="1" source="nEl3crY2EhhI_1kDDiyS-10" target="nEl3crY2EhhI_1kDDiyS-19">
          <mxGeometry relative="1" as="geometry" />
        </mxCell>
        <mxCell id="nEl3crY2EhhI_1kDDiyS-10" value="Serial terminal" style="rounded=0;whiteSpace=wrap;html=1;direction=west;labelBackgroundColor=none;" vertex="1" parent="1">
          <mxGeometry x="458" y="50" width="120" height="60" as="geometry" />
        </mxCell>
        <mxCell id="nEl3crY2EhhI_1kDDiyS-39" style="edgeStyle=orthogonalEdgeStyle;rounded=0;orthogonalLoop=1;jettySize=auto;html=1;exitX=1;exitY=0.5;exitDx=0;exitDy=0;entryX=0;entryY=0.5;entryDx=0;entryDy=0;" edge="1" parent="1" source="nEl3crY2EhhI_1kDDiyS-19" target="nEl3crY2EhhI_1kDDiyS-10">
          <mxGeometry relative="1" as="geometry" />
        </mxCell>
        <mxCell id="nEl3crY2EhhI_1kDDiyS-19" value="FPGA block&lt;div&gt;&lt;br&gt;&lt;/div&gt;&lt;div&gt;&lt;br&gt;&lt;/div&gt;&lt;div&gt;&lt;br&gt;&lt;/div&gt;&lt;div&gt;&lt;br&gt;&lt;/div&gt;&lt;div&gt;&amp;nbsp; &amp;nbsp; TX data&lt;/div&gt;&lt;div&gt;&lt;br&gt;&lt;/div&gt;&lt;div&gt;&lt;br&gt;&lt;/div&gt;&lt;div&gt;&lt;br&gt;&lt;/div&gt;&lt;div&gt;&lt;br&gt;&lt;/div&gt;&lt;div&gt;&lt;br&gt;&lt;/div&gt;" style="rounded=1;whiteSpace=wrap;html=1;labelBackgroundColor=none;" vertex="1" parent="1">
          <mxGeometry x="280" y="260" width="290" height="170" as="geometry" />
        </mxCell>
        <mxCell id="nEl3crY2EhhI_1kDDiyS-34" style="edgeStyle=orthogonalEdgeStyle;rounded=0;orthogonalLoop=1;jettySize=auto;html=1;exitX=1;exitY=0.5;exitDx=0;exitDy=0;entryX=0;entryY=0.5;entryDx=0;entryDy=0;" edge="1" parent="1" source="nEl3crY2EhhI_1kDDiyS-23" target="nEl3crY2EhhI_1kDDiyS-33">
          <mxGeometry relative="1" as="geometry" />
        </mxCell>
        <mxCell id="nEl3crY2EhhI_1kDDiyS-23" value="UART Transmitter" style="rounded=0;whiteSpace=wrap;html=1;labelBackgroundColor=none;" vertex="1" parent="1">
          <mxGeometry x="328" y="290" width="80" height="45" as="geometry" />
        </mxCell>
        <mxCell id="nEl3crY2EhhI_1kDDiyS-31" value="" style="endArrow=block;endFill=1;html=1;edgeStyle=orthogonalEdgeStyle;align=left;verticalAlign=top;rounded=0;entryX=0;entryY=0.5;entryDx=0;entryDy=0;exitX=0;exitY=0.5;exitDx=0;exitDy=0;" edge="1" parent="1" source="nEl3crY2EhhI_1kDDiyS-19" target="nEl3crY2EhhI_1kDDiyS-23">
          <mxGeometry x="-1" relative="1" as="geometry">
            <mxPoint x="258" y="325" as="sourcePoint" />
            <mxPoint x="338" y="326" as="targetPoint" />
            <Array as="points">
              <mxPoint x="290" y="345" />
              <mxPoint x="290" y="313" />
            </Array>
          </mxGeometry>
        </mxCell>
        <mxCell id="nEl3crY2EhhI_1kDDiyS-38" style="edgeStyle=orthogonalEdgeStyle;rounded=0;orthogonalLoop=1;jettySize=auto;html=1;exitX=1;exitY=0.5;exitDx=0;exitDy=0;entryX=1;entryY=0.5;entryDx=0;entryDy=0;" edge="1" parent="1" source="nEl3crY2EhhI_1kDDiyS-33" target="nEl3crY2EhhI_1kDDiyS-19">
          <mxGeometry relative="1" as="geometry">
            <Array as="points">
              <mxPoint x="518" y="310" />
              <mxPoint x="538" y="310" />
              <mxPoint x="538" y="330" />
              <mxPoint x="540" y="330" />
              <mxPoint x="540" y="345" />
            </Array>
          </mxGeometry>
        </mxCell>
        <mxCell id="nEl3crY2EhhI_1kDDiyS-33" value="UART Transmitter" style="rounded=0;whiteSpace=wrap;html=1;labelBackgroundColor=none;" vertex="1" parent="1">
          <mxGeometry x="438" y="280" width="80" height="45" as="geometry" />
        </mxCell>
      </root>
    </mxGraphModel>
  </diagram>
  <diagram id="Io_pkDxcqPQYHnygm3wK" name="Page-2">
    <mxGraphModel grid="1" page="1" gridSize="10" guides="1" tooltips="1" connect="1" arrows="1" fold="1" pageScale="1" pageWidth="850" pageHeight="1100" math="0" shadow="0">
      <root>
        <mxCell id="0" />
        <mxCell id="1" parent="0" />
      </root>
    </mxGraphModel>
  </diagram>
</mxfile>
